
<svg xmlns="http://www.w3.org/2000/svg" version="1.1" xmlns:xlink="http://www.w3.org/1999/xlink" preserveAspectRatio="none" x="0px" y="0px" width="550px" height="400px" viewBox="0 0 550 400">
<defs>
<g id="Layer0_0_FILL">
<path fill="#666666" stroke="none" d="
M 115.2 57
L 115.2 64.9 115.2 90.5 115.2 101.8 160 101.8 160 92.45 160 66.25 160 57 115.2 57
M 119.95 97.7
L 119.95 62.05 155.6 62.05 155.6 97.7 119.95 97.7
M 169.6 57
L 169.6 49.95 103.05 49.95 103.05 57 115.2 57 160 57 169.6 57 Z"/>

<path fill="#999999" stroke="none" d="
M 119.95 62.05
L 119.95 97.7 155.6 97.7 155.6 62.05 119.95 62.05 Z"/>
</g>

<g id="Layer0_0_STROKES_1_FILL">
<path fill="#333333" stroke="none" d="
M 170.95 48.7
Q 170.45 48.15 169.75 48.1
L 161.25 47.8
Q 159.2 47.75 157.1 47.8
L 125.9 49.3
Q 124.85 49.4 123.8 49.3 121.75 49.3 119.65 49.15
L 109.25 48.25 102.95 48.15
Q 102.25 48.15 101.75 48.65 101.25 49.2 101.25 49.9
L 101.3 53 101.35 53.45 101.5 57.15
Q 101.55 57.75 102 58.15 102.45 58.55 103 58.5
L 103.05 58.5 113.65 57.45 114.05 57.35 114.95 57.2 114.75 58.7 113 93.35 113.15 101.9
Q 113.15 102.7 113.75 103.25 114.35 103.85 115.15 103.8
L 140.35 102.7 159.95 102.7
Q 160.8 102.7 160.9 101.9
L 161.75 80.75 160.2 57.2 165.05 57.85 165.2 57.9 169.55 58.3
Q 170.05 58.35 170.45 58 170.8 57.7 170.9 57.2
L 170.9 56.95 171.1 54.75 171.1 54.35 171.4 49.95
Q 171.45 49.25 170.95 48.7
M 168.05 54.35
L 168.05 54.75 168.15 55.75 165.35 56.05 165.2 56.05 165.05 56.1 160 56.8 158.05 56.2 157.7 56.05 157.55 56.05 157.05 55.9 155.2 55.55 154.85 55.45 153.35 55.25 153.15 55.2 153 55.2 151.35 55 151 55 150.9 54.95 150.45 54.95 149.6 54.85 140.7 55.3 135.5 56.25
Q 134.1 56.35 133.4 56.35
L 131.35 56.25
Q 130.9 56.25 130.35 56.1
L 126.5 55.3 124.8 55.2 124.7 55.15 123 55.2
Q 122.7 55.25 122.2 55.25
L 117.6 56 117.45 56.05 117.35 56.05 117.1 56.15 115.95 56.5 115.7 56.55 115.2 56.8 113.65 56.5 104.6 55.55 104.65 55.2 104.7 53.45 104.75 53 104.75 51.75 119.65 50.7
Q 121.75 50.55 123.8 50.55 124.85 50.5 125.9 50.55
L 157.1 52.05
Q 159.2 52.15 161.25 52.05
L 167.85 51.8 168.05 54.35
M 115.7 57.4
L 115.95 57.45 117.1 57.8 117.35 57.9 117.45 57.9 117.6 57.95 122.2 58.7
Q 122.7 58.7 123 58.75
L 124.7 58.8 124.8 58.75 126.5 58.65 130.35 57.85
Q 130.9 57.7 131.35 57.7
L 133.4 57.6
Q 134.1 57.6 135.5 57.7
L 140.7 58.65 147.75 59.15 150.9 59 151 58.95 151.35 58.95 153 58.75 153.15 58.75 153.35 58.7 154.85 58.5 155.2 58.4 157.05 58.05 157.55 57.9 157.7 57.9 158.05 57.75 159.2 57.45 159.45 57.35 159.75 57.25 158.2 80.75 158.2 87.75 159 100.9 158.2 101 143.85 101.05 117.25 99.75 117.35 93.35 115.6 58.7 115.4 57.3 115.7 57.4 Z"/>
</g>

<g id="Layer0_0_STROKES_2_FILL">
<path fill="#333333" stroke="none" d="
M 105.55 95.5
L 105.4 95.65 105.1 96.15 104.9 96.7 104.85 96.8 104.8 96.85 104.8 96.95 104.7 97.2 104.6 97.7 104.45 98.15 104.45 98.35 104.4 98.6 104.35 99.45
Q 104.35 99.8 104.7 99.8
L 105.55 99.9 106 99.9 106.95 99.8 107.25 99.8 107.3 99.75 107.35 99.75 108.7 99.3 108.8 99.25 108.85 99.2 109.1 99.05 109.25 99 109.8 98.5 109.85 98.4 109.9 98.4 109.9 98.35 110 98.25 110.2 97.95
Q 110.3 97.75 110.4 97.7
L 110.55 97.4 114.6 91.8 114.85 91.5 115 91.2 115.35 90.65
Q 115.45 90.45 115.25 90.3 115.15 90.2 115 90.3
L 114.45 90.55 114.1 90.65 113.75 90.85 107.35 94.15 107 94.25 106.85 94.35 106.75 94.4 106.6 94.5 106.55 94.5 106.45 94.6 106.2 94.75 105.95 94.95 105.85 95.05 105.6 95.4 105.55 95.45 105.55 95.5
M 106.1 59.9
L 105.25 60.4
Q 105 60.55 105.1 60.85
L 105.3 61.8 105.35 61.9 105.35 62 105.85 62.95 105.85 63 105.9 63.05 105.95 63.15 106.55 63.85 106.65 63.9 106.65 63.95 106.7 64 106.9 64.15 107.55 64.45 107.65 64.45 107.8 64.5 108.6 64.5 108.85 64.55 111.45 64.85 111.95 64.95 112.15 64.95 112.4 65
Q 113 65 113.25 65.05
L 115.1 65.1
Q 115.35 65.1 115.35 64.85
L 115.25 64.65 114.9 64.3 114.75 64.1 110.35 60.4 109.85 59.9 109.75 59.85 109.65 59.75 109.6 59.75 109.55 59.7 109.35 59.55 109.15 59.5 109.05 59.45 108.9 59.45 108.7 59.4 107.35 59.45 107.3 59.5 107.05 59.55 106.3 59.8 106.25 59.85 106.2 59.85 106.1 59.9
M 167.05 95.95
L 166.85 95.85 166.7 95.75 166.45 95.65 166.2 95.5 165.95 95.4 160.65 92.45 160.15 92.25
Q 159.9 92.15 159.8 92.4 159.7 92.5 159.8 92.6
L 161.1 95.4 161.25 95.6 163 98.7 163.1 98.95 163.3 99.3 163.35 99.45 163.45 99.55 163.45 99.6 163.5 99.65 163.65 99.85 163.85 100.05 163.95 100.1 164.05 100.2 164.25 100.3 164.25 100.35 164.35 100.35 164.5 100.4 164.9 100.6 165.4 100.75 165.5 100.8 165.6 100.8 165.85 100.85 166.3 100.85 166.7 100.9 167.1 100.9 167.9 100.8
Q 168.25 100.8 168.25 100.45
L 168.35 99.65 168.35 99.35 168.4 99.3 168.4 99.25 168.3 98.4 168.3 98.1 168.25 98.05 168.25 97.95 168.1 97.45 167.85 96.9 167.85 96.8 167.8 96.8 167.7 96.6 167.6 96.5 167.55 96.4 167.35 96.2 167.15 96.05 167.05 95.95
M 164.05 60.7
L 163.6 61.35 160.1 65.6 159.85 66
Q 159.7 66.2 159.9 66.4
L 160.1 66.45 163.1 65.8 163.5 65.65 165.95 65 166.15 64.9 166.45 64.9 166.7 64.85 166.9 64.75 167.05 64.75 167.05 64.7 167.15 64.7 167.35 64.6 167.55 64.45 167.65 64.4 167.7 64.3 167.85 64.15 167.9 64.15 167.9 64.1 167.95 64.05 168 63.95 168.25 63.6 168.5 63.1 168.5 63 168.6 62.75 168.8 62 168.85 60.85
Q 168.85 60.55 168.6 60.4
L 167.9 60.15 167.7 60.05 167.6 60.05 167.55 60 167.5 60 166.5 59.8 165.85 59.8 165.4 59.9 165.2 59.9 165.15 59.95 164.95 60 164.55 60.2 164.35 60.4 164.3 60.4 164.3 60.45 164.05 60.7 Z"/>
</g>

<path id="Layer0_0_1_STROKES" stroke="#333333" stroke-width="2" stroke-linejoin="round" stroke-linecap="round" fill="none" d="
M 119.95 62.05
L 155.6 62.05 155.6 97.7 119.95 97.7 119.95 62.05 Z"/>
</defs>

<g transform="matrix( 1, 0, 0, 1, 0,0) ">
<use xlink:href="#Layer0_0_FILL"/>

<use xlink:href="#Layer0_0_1_STROKES"/>

<use xlink:href="#Layer0_0_STROKES_1_FILL"/>

<use xlink:href="#Layer0_0_STROKES_2_FILL"/>
</g>
</svg>
