<?xml version="1.0" standalone="no"?>
<!DOCTYPE svg PUBLIC "-//W3C//DTD SVG 20010904//EN"
 "http://www.w3.org/TR/2001/REC-SVG-20010904/DTD/svg10.dtd">
<svg version="1.0" xmlns="http://www.w3.org/2000/svg"
 width="481.000000pt" height="439.000000pt" viewBox="0 0 481.000000 439.000000"
 preserveAspectRatio="xMidYMid meet">
<metadata>
Created by potrace 1.15, written by Peter Selinger 2001-2017
</metadata>
<g transform="translate(0.000000,439.000000) scale(0.100000,-0.100000)"
fill="#000000" stroke="none">
<path d="M20 3625 c0 -497 -3 -755 -10 -755 -19 0 -10 -38 10 -43 16 -4 20
-14 20 -51 0 -39 -4 -48 -23 -56 -20 -8 -19 -9 11 -9 31 -1 32 0 32 39 l0 40
195 0 c179 0 195 1 195 18 0 16 -14 17 -175 14 -219 -4 -214 -7 -215 139 0 74
4 99 15 109 19 16 19 39 0 46 -8 4 -15 19 -15 34 0 27 3 29 43 32 l42 3 3 48
3 47 260 0 259 0 0 -105 0 -104 -122 -3 c-123 -3 -123 -3 -123 -27 0 -13 6
-26 12 -28 7 -3 13 2 13 11 0 13 19 16 118 18 l117 3 3 63 3 62 49 0 c38 0 50
4 50 15 0 11 -12 15 -50 15 l-50 0 0 50 0 50 -270 0 c-173 0 -270 4 -270 10 0
6 -20 10 -45 10 l-45 0 0 488 c0 462 1 490 18 506 17 15 57 16 418 14 l399 -3
3 -562 c2 -514 1 -563 -14 -563 -12 0 -15 -6 -10 -22 3 -13 6 -49 6 -80 l0
-58 35 0 c41 0 42 2 48 93 4 61 3 67 -14 67 -18 0 -19 18 -19 549 0 302 3 556
6 565 5 14 51 16 409 16 358 0 404 -2 409 -16 3 -9 6 -240 6 -515 l0 -499
-305 0 -305 0 0 -50 0 -50 -50 0 c-38 0 -50 -4 -50 -15 0 -11 12 -15 50 -15
l50 0 0 -65 c0 -50 3 -65 14 -65 19 0 29 17 16 25 -6 4 -10 51 -10 111 l0 104
601 0 601 0 -3 -120 c-4 -109 -2 -120 14 -120 14 0 17 10 17 65 l0 65 50 0
c38 0 50 4 50 15 0 11 -12 15 -50 15 l-50 0 0 50 0 50 -305 0 -305 0 2 513 3
512 399 3 c286 1 403 -1 412 -9 12 -9 14 -109 14 -565 l0 -554 -21 0 c-17 0
-20 -4 -15 -22 3 -13 6 -49 6 -80 l0 -58 35 0 c41 0 42 2 48 93 4 61 3 67 -14
67 -18 0 -19 18 -19 553 0 417 3 556 12 565 19 19 801 17 817 -2 16 -19 15
-1174 -1 -1193 -6 -7 -8 -22 -5 -33 5 -20 0 -20 -234 -20 -207 0 -239 -2 -239
-15 0 -13 45 -15 371 -13 l371 3 4 38 3 37 -104 0 -105 0 0 605 0 605 150 0
150 0 -2 -620 -3 -620 120 -1 c275 -3 318 0 344 26 21 20 22 26 11 40 -7 9
-20 13 -28 10 -8 -3 -20 -1 -27 5 -8 7 -17 4 -30 -10 -17 -18 -31 -20 -187
-20 l-168 0 0 595 0 595 34 0 c25 0 35 -5 39 -20 3 -11 10 -20 17 -20 7 0 14
9 17 20 5 19 14 20 153 20 143 0 148 -1 143 -20 -4 -14 0 -20 11 -20 10 0 16
8 16 21 0 18 4 20 33 14 69 -14 134 -39 185 -72 61 -41 67 -49 46 -57 -14 -5
-14 -9 -3 -22 12 -14 14 -14 25 1 26 35 115 -126 130 -234 6 -44 4 -49 -12
-48 -11 1 -19 -4 -19 -13 0 -10 8 -14 23 -13 22 3 22 1 22 -124 l0 -127 -187
-188 c-176 -177 -186 -189 -170 -205 16 -16 18 -16 39 4 34 30 46 35 54 22 5
-8 3 -9 -7 -4 -14 8 13 -25 80 -97 l35 -38 126 2 125 2 -121 3 -120 4 -45 47
-44 47 46 -43 45 -43 120 4 119 3 -115 2 -116 2 -67 68 -67 67 155 155 155
155 0 107 0 108 25 0 c16 0 25 6 25 15 0 9 -9 15 -24 15 -22 0 -24 4 -31 78
-18 210 -149 375 -352 444 l-68 23 -2157 3 -2158 2 0 -755z m4038 728 c-90 -3
-98 -5 -98 -23 0 -11 -4 -20 -10 -20 -5 0 -10 9 -10 20 0 17 -7 20 -45 20
l-45 0 0 -610 0 -610 172 0 c144 0 174 3 189 16 12 11 25 14 36 9 10 -5 24 -7
31 -6 17 3 15 -9 -5 -31 -15 -16 -35 -18 -225 -18 l-208 0 0 625 0 625 -167 3
c-93 1 -22 3 157 3 179 0 281 -2 228 -3z m-4008 -638 c0 -385 -4 -596 -10
-600 -7 -4 -10 198 -10 600 0 402 3 604 10 600 6 -4 10 -215 10 -600z m3460 4
c0 -382 -4 -598 -10 -594 -11 7 -14 1177 -3 1188 3 4 8 7 10 7 2 0 3 -270 3
-601z m1239 14 l1 -138 -184 -185 c-102 -101 -189 -181 -193 -177 -4 4 75 90
175 190 l182 182 0 133 c0 72 4 132 9 132 5 0 9 -62 10 -137z"/>
<path d="M2860 3250 l0 -50 -50 0 c-38 0 -50 -4 -50 -15 0 -11 12 -15 50 -15
l50 0 0 -65 c0 -55 3 -65 18 -65 15 0 17 11 13 120 l-3 120 246 0 c157 0 246
4 246 10 0 6 -93 10 -260 10 l-260 0 0 -50z"/>
<path d="M1750 3115 c-7 -8 -10 -22 -6 -30 5 -13 -24 -15 -234 -15 -207 0
-240 -2 -240 -15 0 -13 63 -15 505 -15 442 0 505 2 505 15 0 13 -33 15 -240
15 -210 0 -239 2 -234 15 7 17 -12 45 -31 45 -7 0 -18 -7 -25 -15z"/>
<path d="M4490 2915 c0 -8 -7 -15 -15 -15 -8 0 -15 -7 -15 -15 0 -8 5 -15 10
-15 6 0 10 -42 10 -105 0 -87 3 -105 15 -105 12 0 15 19 15 108 0 59 4 113 8
120 6 9 37 12 118 10 l109 -3 3 -157 3 -158 -136 0 c-112 0 -135 -2 -135 -15
0 -12 24 -15 133 -17 l132 -3 3 -147 3 -148 -120 0 -120 0 -3 107 c-2 74 -7
108 -15 111 -10 3 -13 -26 -13 -122 l0 -126 135 0 135 0 0 -150 0 -150 -120 0
-120 0 0 110 c0 91 -3 110 -15 110 -13 0 -15 -21 -15 -125 l0 -124 133 -3 132
-3 3 -142 3 -143 -151 0 c-127 0 -150 -2 -150 -15 0 -13 26 -15 170 -15 l169
0 3 168 c2 92 2 398 0 680 l-3 512 -149 0 c-127 0 -150 -2 -150 -15z m290
-490 c0 -323 -3 -495 -10 -495 -7 0 -10 170 -10 490 l0 489 -132 4 -133 3 143
2 142 2 0 -495z"/>
<path d="M3710 2828 c0 -63 3 -78 15 -78 12 0 15 13 15 60 l0 60 160 0 160 0
0 -100 0 -100 -175 0 -175 0 0 -305 c0 -193 4 -305 10 -305 6 0 11 107 12 288
l3 287 160 0 160 0 5 -125 c5 -99 6 -74 8 123 1 156 6 247 12 247 6 0 10 -60
10 -160 0 -153 1 -160 20 -160 17 0 20 -7 20 -45 0 -38 -3 -45 -20 -45 -20 0
-20 -7 -20 -445 0 -290 -3 -445 -10 -445 -6 0 -11 142 -12 403 -2 307 -3 341
-5 144 l-3 -259 -175 4 c-160 3 -175 2 -175 -14 0 -16 17 -18 173 -20 l172 -3
3 -117 3 -118 -161 0 -160 0 0 75 c0 57 -3 75 -14 75 -17 0 -24 -52 -18 -126
4 -51 5 -52 41 -58 20 -3 168 -3 329 1 l293 6 -3 115 c-2 81 -7 117 -15 120
-10 3 -13 -22 -13 -102 l0 -106 -120 0 -120 0 0 145 0 145 135 0 c113 0 135 2
135 15 0 13 -22 15 -135 15 l-135 0 0 150 0 150 120 0 120 0 0 -110 c0 -91 3
-110 15 -110 13 0 15 21 15 125 l0 125 -135 0 -135 0 0 99 c0 96 1 100 23 103
18 2 23 10 25 41 2 28 8 37 22 37 10 0 22 5 25 10 3 6 37 10 76 10 l69 0 0
-110 c0 -91 3 -110 15 -110 13 0 15 21 15 125 l0 125 -135 0 -135 0 0 145 0
145 120 0 120 0 0 -105 c0 -87 3 -105 15 -105 13 0 15 20 15 120 l0 120 -137
0 c-76 1 -225 2 -331 3 l-192 2 0 -77z"/>
<path d="M1894 2781 c-2 -2 -4 -10 -4 -18 0 -10 60 -13 320 -13 278 0 320 2
320 15 0 11 -11 15 -42 15 -24 0 -166 1 -316 3 -151 1 -276 0 -278 -2z"/>
<path d="M0 2525 c0 -12 33 -15 218 -17 l217 -3 0 -158 1 -157 -3 155 -4 155
-189 0 -189 0 -4 -52 -3 -53 -2 53 c-2 47 -4 52 -24 51 -17 -1 -19 -2 -5 -6
16 -4 17 -28 17 -318 0 -290 -1 -314 -18 -318 -13 -4 -12 -5 5 -6 20 -1 22 4
26 62 l3 62 2 -62 2 -63 58 -2 c50 -1 46 -3 -28 -8 l-85 -6 73 -2 72 -2 0 -39
c0 -42 14 -61 33 -42 6 6 33 11 59 11 36 0 48 4 48 15 0 11 -12 15 -50 15
l-50 0 0 35 0 35 -61 0 c-56 0 -59 1 -44 16 10 10 14 26 11 37 -3 13 2 26 12
33 15 12 15 13 -7 14 -19 0 -21 3 -11 15 13 16 5 54 -13 56 -7 1 2 5 18 9 l30
8 -28 1 c-26 1 -27 2 -12 17 10 11 14 25 11 40 -5 18 -2 24 11 24 16 1 16 2 3
13 -8 7 -15 27 -16 45 l-1 32 74 0 c101 0 144 22 168 87 23 64 42 93 60 93 10
0 15 -11 15 -33 0 -18 5 -38 11 -44 6 -6 9 -23 7 -39 -2 -23 -7 -28 -24 -26
-24 3 -37 -19 -27 -44 4 -11 13 -14 30 -9 18 4 24 2 21 -7 -3 -7 -15 -15 -29
-18 -22 -6 -24 -10 -24 -70 0 -60 2 -64 25 -70 16 -4 25 -13 25 -25 0 -12 -9
-21 -25 -25 -23 -6 -25 -10 -25 -70 0 -60 2 -64 24 -70 28 -6 41 -30 17 -30
-20 0 -21 -39 -1 -46 12 -5 15 -26 15 -105 l0 -99 -120 0 -120 0 0 40 c0 33
-3 40 -20 40 -18 0 -20 -7 -20 -55 l0 -55 154 0 154 0 4 68 c1 37 2 257 0 490
l-3 422 -194 0 c-123 0 -195 4 -195 10 0 6 -13 10 -30 10 -20 0 -30 -5 -30
-15z m418 -67 c3 -23 -2 -30 -33 -42 -24 -11 -40 -26 -48 -46 l-11 -30 -133 0
c-91 0 -133 4 -133 11 0 7 9 9 24 5 15 -4 28 0 36 9 18 21 -3 44 -35 37 -24
-4 -25 -2 -25 42 l0 46 178 -2 177 -3 3 -27z"/>
<path d="M1723 2425 c-39 -16 -72 -73 -51 -86 20 -13 38 -11 38 6 0 23 37 55
63 55 37 0 60 -23 60 -60 0 -37 -23 -60 -60 -60 -16 0 -23 -6 -23 -20 0 -15 7
-20 28 -20 46 0 72 -25 72 -70 0 -67 -71 -103 -118 -60 -12 12 -22 27 -22 35
0 9 -10 15 -25 15 -53 0 -13 -79 51 -100 85 -28 164 27 164 115 0 28 -7 44
-30 65 -29 27 -29 28 -10 45 13 12 20 31 20 57 0 46 -32 82 -81 92 -40 8 -38
8 -76 -9z"/>
<path d="M2077 2414 c-10 -13 -36 -36 -58 -51 -22 -14 -39 -34 -39 -44 0 -25
5 -24 57 6 l43 26 0 -146 c0 -138 1 -145 20 -145 19 0 20 7 20 190 0 201 -4
218 -43 164z"/>
<path d="M2331 2427 c-62 -22 -90 -85 -91 -201 0 -71 28 -136 67 -157 41 -22
109 -16 138 11 80 76 38 220 -64 220 -20 0 -50 -9 -67 -19 l-31 -19 7 39 c15
80 65 117 115 85 14 -9 25 -23 25 -31 0 -9 10 -15 25 -15 33 0 32 22 -2 60
-33 35 -74 45 -122 27z m88 -193 c43 -54 10 -144 -52 -144 -63 0 -98 110 -48
151 34 27 75 24 100 -7z"/>
<path d="M2575 2408 c-3 -13 -12 -55 -19 -95 -13 -68 -12 -73 5 -78 11 -4 30
3 48 15 56 43 121 4 121 -73 0 -88 -110 -120 -140 -41 -9 22 -38 32 -53 18 -8
-8 16 -55 39 -76 50 -44 147 -26 184 34 59 98 -18 219 -123 191 l-39 -11 6 41
c4 22 9 44 12 49 3 4 36 8 75 8 62 0 69 2 69 20 0 19 -7 20 -90 20 -85 0 -90
-1 -95 -22z"/>
<path d="M1010 1710 c0 -19 -7 -20 -190 -20 -162 0 -190 -2 -190 -15 0 -13 28
-15 189 -15 189 0 190 0 193 -22 l3 -23 660 0 660 0 3 23 c2 14 10 22 23 22
10 0 19 7 19 15 0 8 -9 15 -20 15 -13 0 -20 7 -20 20 0 20 -7 20 -665 20 -658
0 -665 0 -665 -20z m1290 -5 c0 -13 -77 -15 -630 -15 -346 0 -630 4 -630 8 0
5 3 12 7 15 3 4 287 7 630 7 547 0 623 -2 623 -15z m0 -60 c0 -13 -77 -15
-630 -15 -553 0 -630 2 -630 15 0 13 77 15 630 15 553 0 630 -2 630 -15z"/>
<path d="M2690 1710 c0 -18 -7 -20 -65 -20 -51 0 -65 -3 -65 -15 0 -12 14 -15
65 -15 63 0 65 -1 65 -25 l0 -25 273 2 272 3 3 23 c3 22 4 22 193 22 161 0
189 2 189 15 0 13 -28 15 -190 15 -183 0 -190 1 -190 20 0 20 -7 20 -275 20
-268 0 -275 0 -275 -20z"/>
<path d="M23 1342 c-30 -4 -30 -30 0 -34 20 -3 22 -9 24 -73 3 -69 3 -70 -13
-41 -13 22 -18 26 -25 15 -5 -8 -8 -21 -8 -29 0 -10 3 -8 8 5 7 18 9 18 24
-10 10 -21 15 -55 14 -110 -2 -75 -3 -80 -25 -83 -30 -5 -28 -22 3 -22 l25 0
0 -160 0 -160 -25 0 c-14 0 -25 -4 -25 -10 0 -5 13 -10 30 -10 l30 0 3 338 c1
185 2 67 3 -263 0 -330 -2 -558 -3 -508 l-4 93 -29 0 c-17 0 -30 -4 -30 -10 0
-5 11 -10 25 -10 25 0 25 -1 25 -79 0 -83 -9 -102 -38 -79 -10 8 -7 1 6 -16
27 -36 29 -55 2 -31 -21 19 -28 7 -8 -13 9 -9 415 -12 1765 -12 l1753 0 0 390
0 390 90 0 90 0 0 -90 0 -90 180 0 180 0 0 -300 0 -300 373 2 372 3 -365 5
c-201 3 -363 7 -360 10 3 2 167 7 365 10 l360 6 -339 2 c-309 2 -340 4 -352
20 -10 12 -13 56 -14 155 l0 137 156 0 155 0 -2 -108 c-1 -59 2 -107 7 -107 5
0 10 44 12 97 l3 97 36 3 c53 4 56 28 4 28 l-41 0 0 305 0 305 40 0 c29 0 40
4 40 15 0 11 -11 15 -39 15 -22 0 -41 5 -44 13 -4 10 -7 10 -18 0 -7 -7 -26
-13 -41 -13 -18 0 -28 -5 -28 -15 0 -10 11 -15 35 -15 l35 0 0 -89 0 -90 -27
-3 c-14 -2 -28 -10 -31 -18 -4 -12 -2 -13 9 -3 15 15 39 17 39 4 0 -6 -12 -23
-26 -38 l-26 -28 28 -5 29 -5 3 -158 3 -157 -156 0 -155 0 0 124 0 125 36 3
c46 4 68 32 41 52 -15 12 -15 15 -3 19 23 9 16 81 -8 85 -10 2 -23 -2 -30 -8
-8 -10 -6 -11 13 -5 21 6 23 5 18 -14 -3 -11 -1 -21 4 -21 5 0 9 -7 9 -16 0
-12 -7 -15 -25 -12 -21 4 -23 3 -13 -9 10 -13 8 -14 -12 -11 l-25 3 0 235 0
235 33 3 c31 3 32 5 32 51 0 26 5 52 11 58 7 7 9 19 6 27 -5 12 -21 16 -69 16
l-64 0 4 -134 4 -134 -156 0 -156 0 0 114 0 114 76 0 c66 0 75 2 72 18 -3 14
-16 18 -73 20 -98 5 -175 -6 -175 -24 0 -8 10 -14 25 -14 l25 0 0 -235 0 -236
-87 3 -88 3 0 230 0 230 23 3 c12 2 22 10 22 18 0 16 27 15 -400 14 l-315 -1
-67 -67 c-38 -36 -68 -72 -68 -80 0 -10 19 -12 83 -10 l82 3 3 63 3 62 274 0
c150 0 280 -3 289 -6 14 -6 16 -68 16 -603 0 -451 -3 -600 -12 -609 -9 -9
-115 -12 -415 -12 l-404 0 1 633 c1 618 1 632 -18 635 -23 4 -37 -25 -22 -43
7 -8 9 -215 8 -616 l-3 -604 -407 -3 -408 -2 0 615 0 615 285 0 285 0 0 -65 0
-65 79 0 c48 0 83 4 87 11 4 6 -23 41 -62 80 l-69 69 -625 0 -624 0 -68 -67
c-37 -37 -68 -73 -68 -81 0 -10 19 -12 81 -10 l82 3 1 60 1 60 285 0 285 0 0
-610 0 -610 -408 -3 -407 -2 0 622 c0 343 0 629 0 636 0 18 -40 15 -47 -4 -3
-8 -1 -20 6 -27 8 -8 11 -177 11 -608 0 -492 -2 -599 -14 -608 -9 -8 -126 -10
-412 -9 l-399 3 0 610 0 610 263 3 262 2 0 -65 c0 -50 3 -65 14 -65 9 0 16 12
18 28 3 24 8 27 45 30 39 3 42 1 45 -25 3 -26 6 -28 46 -28 23 0 42 3 41 7 0
4 -32 38 -72 77 l-72 70 -315 3 c-173 2 -325 2 -337 0z m3800 -19 l-73 -4 0
-329 0 -330 168 0 167 0 -2 317 c-1 175 -4 326 -7 336 -2 10 1 17 10 17 10 0
14 -13 14 -48 0 -55 4 -62 30 -55 13 4 20 16 23 42 3 32 4 30 5 -11 2 -47 1
-48 -28 -48 l-30 0 0 -555 c0 -375 -3 -555 -10 -555 -7 0 -10 89 -8 270 l3
270 -183 0 -182 0 0 345 1 345 87 -2 87 -2 -72 -3z m-303 -643 c0 -352 -4
-640 -9 -640 -4 0 -6 11 -4 24 3 13 0 27 -6 30 -17 11 -15 1179 1 1206 7 11
14 20 15 20 2 0 3 -288 3 -640z m550 59 l0 -69 -155 0 -155 0 0 69 0 69 155 0
155 0 0 -69z m-3175 -689 c4 -7 -133 -10 -404 -10 -267 0 -411 3 -411 10 0 14
807 14 815 0z m855 0 c0 -7 -142 -10 -405 -10 -263 0 -405 3 -405 10 0 7 142
10 405 10 263 0 405 -3 405 -10z m860 0 c0 -7 -144 -10 -411 -10 -271 0 -408
3 -404 10 4 6 152 10 411 10 263 0 404 -3 404 -10z m855 0 c4 -7 -133 -10
-404 -10 -267 0 -411 3 -411 10 0 14 807 14 815 0z"/>
<path d="M4333 1290 c-26 -33 -51 -60 -55 -60 -5 0 -8 -7 -8 -15 0 -8 6 -15
13 -15 7 0 26 -13 42 -30 23 -24 37 -30 72 -30 24 0 43 5 43 10 0 6 -14 10
-32 10 -21 0 -41 9 -60 27 l-27 26 40 49 c36 42 45 48 80 48 39 0 39 0 39 -41
0 -28 4 -39 12 -37 8 3 12 19 10 41 -2 22 1 37 7 37 6 0 11 9 11 20 0 18 -7
20 -69 20 l-69 0 -49 -60z"/>
</g>
</svg>
